<svg height="1998" width="720" xmlns="http://www.w3.org/2000/svg">
<rect height="1998" fill="#555" width="720"></rect>
<text fill="#7f7" font-family="Courier New" font-size="12" xml:space="preserve">
<tspan x="10" y="26">9 megabytes installed</tspan>
<tspan x="10" y="42"></tspan>
<tspan x="10" y="58">node_modules</tspan>
<tspan x="10" y="74">└─┬ tldr@2.0.0 </tspan>
<tspan x="10" y="90">  ├─┬ chalk@1.1.3 </tspan>
<tspan x="10" y="106">  │ ├── ansi-styles@2.2.1 </tspan>
<tspan x="10" y="122">  │ ├── escape-string-regexp@1.0.5 </tspan>
<tspan x="10" y="138">  │ ├─┬ has-ansi@2.0.0 </tspan>
<tspan x="10" y="154">  │ │ └── ansi-regex@2.1.1 </tspan>
<tspan x="10" y="170">  │ ├── strip-ansi@3.0.1 </tspan>
<tspan x="10" y="186">  │ └── supports-color@2.0.0 </tspan>
<tspan x="10" y="202">  ├─┬ commander@2.9.0 </tspan>
<tspan x="10" y="218">  │ └── graceful-readlink@1.0.1 </tspan>
<tspan x="10" y="234">  ├─┬ fs-extra@0.30.0 </tspan>
<tspan x="10" y="250">  │ ├── graceful-fs@4.1.11 </tspan>
<tspan x="10" y="266">  │ ├── jsonfile@2.4.0 </tspan>
<tspan x="10" y="282">  │ ├── klaw@1.3.1 </tspan>
<tspan x="10" y="298">  │ ├── path-is-absolute@1.0.1 </tspan>
<tspan x="10" y="314">  │ └─┬ rimraf@2.6.1 </tspan>
<tspan x="10" y="330">  │   └─┬ glob@7.1.1 </tspan>
<tspan x="10" y="346">  │     ├── fs.realpath@1.0.0 </tspan>
<tspan x="10" y="362">  │     ├─┬ inflight@1.0.6 </tspan>
<tspan x="10" y="378">  │     │ └── wrappy@1.0.2 </tspan>
<tspan x="10" y="394">  │     ├─┬ minimatch@3.0.3 </tspan>
<tspan x="10" y="410">  │     │ └─┬ brace-expansion@1.1.7 </tspan>
<tspan x="10" y="426">  │     │   ├── balanced-match@0.4.2 </tspan>
<tspan x="10" y="442">  │     │   └── concat-map@0.0.1 </tspan>
<tspan x="10" y="458">  │     └── once@1.4.0 </tspan>
<tspan x="10" y="474">  ├── lodash.defaults@4.2.0 </tspan>
<tspan x="10" y="490">  ├── lodash.get@4.4.2 </tspan>
<tspan x="10" y="506">  ├── lodash.identity@3.0.0 </tspan>
<tspan x="10" y="522">  ├── lodash.isempty@4.4.0 </tspan>
<tspan x="10" y="538">  ├── lodash.sample@4.2.1 </tspan>
<tspan x="10" y="554">  ├── lodash.unescape@4.0.1 </tspan>
<tspan x="10" y="570">  ├── marked@0.3.6 </tspan>
<tspan x="10" y="586">  ├── ms@0.7.3 </tspan>
<tspan x="10" y="602">  ├── os-homedir@1.0.2 </tspan>
<tspan x="10" y="618">  ├─┬ request@2.75.0 </tspan>
<tspan x="10" y="634">  │ ├── aws-sign2@0.6.0 </tspan>
<tspan x="10" y="650">  │ ├── aws4@1.6.0 </tspan>
<tspan x="10" y="666">  │ ├─┬ bl@1.1.2 </tspan>
<tspan x="10" y="682">  │ │ └─┬ readable-stream@2.0.6 </tspan>
<tspan x="10" y="698">  │ │   ├── isarray@1.0.0 </tspan>
<tspan x="10" y="714">  │ │   ├── process-nextick-args@1.0.7 </tspan>
<tspan x="10" y="730">  │ │   └── util-deprecate@1.0.2 </tspan>
<tspan x="10" y="746">  │ ├── caseless@0.11.0 </tspan>
<tspan x="10" y="762">  │ ├─┬ combined-stream@1.0.5 </tspan>
<tspan x="10" y="778">  │ │ └── delayed-stream@1.0.0 </tspan>
<tspan x="10" y="794">  │ ├── extend@3.0.0 </tspan>
<tspan x="10" y="810">  │ ├── forever-agent@0.6.1 </tspan>
<tspan x="10" y="826">  │ ├─┬ form-data@2.0.0 </tspan>
<tspan x="10" y="842">  │ │ └── asynckit@0.4.0 </tspan>
<tspan x="10" y="858">  │ ├─┬ har-validator@2.0.6 </tspan>
<tspan x="10" y="874">  │ │ ├─┬ is-my-json-valid@2.16.0 </tspan>
<tspan x="10" y="890">  │ │ │ ├── generate-function@2.0.0 </tspan>
<tspan x="10" y="906">  │ │ │ ├─┬ generate-object-property@1.2.0 </tspan>
<tspan x="10" y="922">  │ │ │ │ └── is-property@1.0.2 </tspan>
<tspan x="10" y="938">  │ │ │ ├── jsonpointer@4.0.1 </tspan>
<tspan x="10" y="954">  │ │ │ └── xtend@4.0.1 </tspan>
<tspan x="10" y="970">  │ │ └─┬ pinkie-promise@2.0.1 </tspan>
<tspan x="10" y="986">  │ │   └── pinkie@2.0.4 </tspan>
<tspan x="10" y="1002">  │ ├─┬ hawk@3.1.3 </tspan>
<tspan x="10" y="1018">  │ │ ├── boom@2.10.1 </tspan>
<tspan x="10" y="1034">  │ │ ├── cryptiles@2.0.5 </tspan>
<tspan x="10" y="1050">  │ │ ├── hoek@2.16.3 </tspan>
<tspan x="10" y="1066">  │ │ └── sntp@1.0.9 </tspan>
<tspan x="10" y="1082">  │ ├─┬ http-signature@1.1.1 </tspan>
<tspan x="10" y="1098">  │ │ ├── assert-plus@0.2.0 </tspan>
<tspan x="10" y="1114">  │ │ ├─┬ jsprim@1.4.0 </tspan>
<tspan x="10" y="1130">  │ │ │ ├── assert-plus@1.0.0 </tspan>
<tspan x="10" y="1146">  │ │ │ ├── extsprintf@1.0.2 </tspan>
<tspan x="10" y="1162">  │ │ │ ├── json-schema@0.2.3 </tspan>
<tspan x="10" y="1178">  │ │ │ └── verror@1.3.6 </tspan>
<tspan x="10" y="1194">  │ │ └─┬ sshpk@1.13.0 </tspan>
<tspan x="10" y="1210">  │ │   ├── asn1@0.2.3 </tspan>
<tspan x="10" y="1226">  │ │   ├── assert-plus@1.0.0 </tspan>
<tspan x="10" y="1242">  │ │   ├── bcrypt-pbkdf@1.0.1 </tspan>
<tspan x="10" y="1258">  │ │   ├─┬ dashdash@1.14.1 </tspan>
<tspan x="10" y="1274">  │ │   │ └── assert-plus@1.0.0 </tspan>
<tspan x="10" y="1290">  │ │   ├── ecc-jsbn@0.1.1 </tspan>
<tspan x="10" y="1306">  │ │   ├─┬ getpass@0.1.6 </tspan>
<tspan x="10" y="1322">  │ │   │ └── assert-plus@1.0.0 </tspan>
<tspan x="10" y="1338">  │ │   ├── jodid25519@1.0.2 </tspan>
<tspan x="10" y="1354">  │ │   ├── jsbn@0.1.1 </tspan>
<tspan x="10" y="1370">  │ │   └── tweetnacl@0.14.5 </tspan>
<tspan x="10" y="1386">  │ ├── is-typedarray@1.0.0 </tspan>
<tspan x="10" y="1402">  │ ├── isstream@0.1.2 </tspan>
<tspan x="10" y="1418">  │ ├── json-stringify-safe@5.0.1 </tspan>
<tspan x="10" y="1434">  │ ├─┬ mime-types@2.1.15 </tspan>
<tspan x="10" y="1450">  │ │ └── mime-db@1.27.0 </tspan>
<tspan x="10" y="1466">  │ ├── node-uuid@1.4.8 </tspan>
<tspan x="10" y="1482">  │ ├── oauth-sign@0.8.2 </tspan>
<tspan x="10" y="1498">  │ ├── qs@6.2.3 </tspan>
<tspan x="10" y="1514">  │ ├── stringstream@0.0.5 </tspan>
<tspan x="10" y="1530">  │ ├─┬ tough-cookie@2.3.2 </tspan>
<tspan x="10" y="1546">  │ │ └── punycode@1.4.1 </tspan>
<tspan x="10" y="1562">  │ └── tunnel-agent@0.4.3 </tspan>
<tspan x="10" y="1578">  └─┬ unzip2@0.2.5 </tspan>
<tspan x="10" y="1594">    ├─┬ binary@0.3.0 </tspan>
<tspan x="10" y="1610">    │ ├── buffers@0.1.1 </tspan>
<tspan x="10" y="1626">    │ └─┬ chainsaw@0.1.0 </tspan>
<tspan x="10" y="1642">    │   └── traverse@0.3.9 </tspan>
<tspan x="10" y="1658">    ├─┬ fstream@0.1.31 </tspan>
<tspan x="10" y="1674">    │ ├─┬ graceful-fs@3.0.11 </tspan>
<tspan x="10" y="1690">    │ │ └── natives@1.1.0 </tspan>
<tspan x="10" y="1706">    │ ├── inherits@2.0.3 </tspan>
<tspan x="10" y="1722">    │ └─┬ mkdirp@0.5.1 </tspan>
<tspan x="10" y="1738">    │   └── minimist@0.0.8 </tspan>
<tspan x="10" y="1754">    ├─┬ match-stream@0.0.2 </tspan>
<tspan x="10" y="1770">    │ └─┬ readable-stream@1.0.34 </tspan>
<tspan x="10" y="1786">    │   └── isarray@0.0.1 </tspan>
<tspan x="10" y="1802">    ├─┬ pullstream@0.4.1 </tspan>
<tspan x="10" y="1818">    │ ├── over@0.0.5 </tspan>
<tspan x="10" y="1834">    │ ├─┬ readable-stream@1.0.34 </tspan>
<tspan x="10" y="1850">    │ │ └── isarray@0.0.1 </tspan>
<tspan x="10" y="1866">    │ └─┬ slice-stream@1.0.0 </tspan>
<tspan x="10" y="1882">    │   └─┬ readable-stream@1.0.34 </tspan>
<tspan x="10" y="1898">    │     └── isarray@0.0.1 </tspan>
<tspan x="10" y="1914">    ├─┬ readable-stream@1.0.34 </tspan>
<tspan x="10" y="1930">    │ ├── core-util-is@1.0.2 </tspan>
<tspan x="10" y="1946">    │ ├── isarray@0.0.1 </tspan>
<tspan x="10" y="1962">    │ └── string_decoder@0.10.31 </tspan>
<tspan x="10" y="1978">    └── setimmediate@1.0.5</tspan>
</text>
</svg>
